<svg xmlns="http://www.w3.org/2000/svg" viewBox="0 0 90 90"><defs><style>.cls-1{fill:#ffa400;}.cls-2{fill:#ffd900;}</style></defs><title>yellow-leaves</title><g id="yellow-leaves"><path class="cls-1" d="M43.55,21.76V83.59A1.43,1.43,0,0,0,45,85h0a1.43,1.43,0,0,0,1.44-1.41V21.76A1.43,1.43,0,0,0,45,20.35h0A1.43,1.43,0,0,0,43.55,21.76Z"/><path class="cls-2" d="M50.12,16.63c0,5-2.75,9.31-4.17,11.21a1,1,0,0,1-1.67,0c-1.43-1.9-4.17-6.2-4.17-11.21s2.75-9.32,4.17-11.21a1,1,0,0,1,1.67,0C47.37,7.31,50.12,11.62,50.12,16.63Z"/><path class="cls-2" d="M37.81,24.63c3.79,3.82,5,9.06,5.37,11.49A1,1,0,0,1,42,37.26c-2.47-.44-7.79-1.78-11.58-5.6s-5-9.06-5.37-11.49A1,1,0,0,1,26.22,19C28.7,19.46,34,20.8,37.81,24.63Z"/><path class="cls-2" d="M52.2,24.63c-3.8,3.83-5,9.06-5.37,11.49A1,1,0,0,0,48,37.26c2.47-.43,7.79-1.77,11.58-5.6s5-9.06,5.37-11.49A1,1,0,0,0,63.78,19C61.3,19.46,56,20.81,52.2,24.63Z"/><path class="cls-2" d="M37.81,41.58c3.79,3.83,5,9.06,5.37,11.49A1,1,0,0,1,42,54.21c-2.47-.43-7.79-1.77-11.58-5.6s-5-9.06-5.37-11.49A1,1,0,0,1,26.22,36C28.7,36.42,34,37.76,37.81,41.58Z"/><path class="cls-2" d="M52.2,41.58c-3.8,3.83-5,9.06-5.37,11.49A1,1,0,0,0,48,54.21c2.47-.43,7.79-1.77,11.58-5.6s5-9.06,5.37-11.49A1,1,0,0,0,63.78,36C61.3,36.41,56,37.75,52.2,41.58Z"/><path class="cls-2" d="M37.81,58.53c3.79,3.83,5,9.06,5.37,11.49A1,1,0,0,1,42,71.17c-2.47-.43-7.79-1.77-11.59-5.6s-5-9.06-5.37-11.49a1,1,0,0,1,1.21-1.15C28.7,53.37,34,54.71,37.81,58.53Z"/><path class="cls-2" d="M52.2,58.54c-3.8,3.82-5,9.06-5.37,11.49A1,1,0,0,0,48,71.17c2.47-.44,7.79-1.78,11.58-5.6s5-9.06,5.37-11.49a1,1,0,0,0-1.21-1.15C61.31,53.37,56,54.71,52.2,58.54Z"/></g></svg>